<svg width="150" height="52" viewBox="0 0 150 52" fill="none" xmlns="http://www.w3.org/2000/svg">
<path fill-rule="evenodd" clip-rule="evenodd" d="M26.5192 45.8847L26.2973 46.0144L17.5296 51.0929L8.76481 46.0144L0 40.9388V32.8081L9.19138 35.6413L17.5296 40.4719L26.5192 45.8847Z" fill="#F41616"/>
<path fill-rule="evenodd" clip-rule="evenodd" d="M9.20579 46.2711L8.76481 46.0145L0 40.939V30.7849V30.4592V20.6338V20.3052V10.1541L9.71306 11.1801L9.19138 15.4516V17.985V25.1099V25.9832V33.4827V35.6415L9.20579 46.2711Z" fill="#F41616"/>
<path fill-rule="evenodd" clip-rule="evenodd" d="M17.5296 0L25.5076 4.62019L17.5296 10.621L9.19138 15.4515L0 21.2217V20.6338V20.3052V10.154L8.76481 5.07558L17.5296 0Z" fill="#F41616"/>
<path fill-rule="evenodd" clip-rule="evenodd" d="M17.5295 0L26.2971 5.07558L35.062 10.154V20.3052V20.6338V20.6655L25.8158 15.4198L17.5295 10.621L8.76465 5.07558L17.5295 0Z" fill="#F2F2F2"/>
<path fill-rule="evenodd" clip-rule="evenodd" d="M35.0621 10.1541V20.3052V20.6338V20.6655L26.6922 25.5451L17.6968 30.9435V20.1496L25.816 15.4199L35.0621 10.1541Z" fill="#F41616"/>
<path fill-rule="evenodd" clip-rule="evenodd" d="M26.6922 25.5452L35.0621 30.4247V30.4593V30.785V40.9391L25.816 35.6733L17.6968 30.9435V20.1497L26.6922 25.5452Z" fill="#F2F2F2"/>
<path fill-rule="evenodd" clip-rule="evenodd" d="M35.0623 30.4592V30.7849V40.939L26.5194 45.8848L17.5298 40.472L25.8161 35.6732L35.0623 30.4592Z" fill="#F41616"/>
<path d="M66.553 18.6594C66.7721 19.6596 66.8816 20.8269 66.8816 22.1556V23.4727C66.8816 25.937 66.6683 27.5972 66.2418 28.4532C64.9361 31.4795 62.1231 32.9927 57.7998 32.9927C57.2493 33.0302 56.2664 32.9812 54.8513 32.8457C54.2777 32.7736 53.5744 32.6929 52.7444 32.6065V40.864H45.7319V12.7826L55.2346 12.5981H57.7969C61.7397 12.5981 64.3943 13.8375 65.7604 16.3162C66.1207 17.0483 66.383 17.8294 66.553 18.6594ZM60.5119 21.6252C60.5119 20.1611 60.2871 19.1667 59.8346 18.6421C59.3821 18.1781 58.6817 17.8928 57.7277 17.7804C56.667 17.6478 55.0069 17.6824 52.7472 17.8899V27.4848C55.2 27.7643 56.9351 27.8508 57.9468 27.7413C58.7394 27.6692 59.3072 27.43 59.6501 27.0265C60.2237 26.4155 60.5119 25.4586 60.5119 24.1529V21.6252Z" fill="#F2F2F2"/>
<path d="M89.7291 40.8698H72.8855V12.7451H80.0074V35.3935H89.1614L89.7291 40.8698Z" fill="#F2F2F2"/>
<path d="M114.882 40.8698L113.565 36.5494H103.751L102.468 40.8698H94.522L104.757 12.748H112.631L122.794 40.8698H114.882ZM108.656 19.2993L105.051 31.347H112.265L108.656 19.2993Z" fill="#F2F2F2"/>
<path d="M130.772 40.8699L134.268 32.1368L126.65 12.7827H134.525L138.277 24.3721L142.03 12.7827H149.867L138.643 40.8699H130.772Z" fill="#F2F2F2"/>
</svg>
