<svg width="20" height="20" viewBox="0 0 20 20" fill="none" xmlns="http://www.w3.org/2000/svg">
<g clip-path="url(#clip0)">
<path d="M9.41399 14.2833V10.5859H5.29272C5.33293 12.0359 5.5221 13.4266 5.84531 14.6864C6.9722 14.4544 8.17634 14.3164 9.41399 14.2833Z" fill="white"/>
<path d="M8.31492 19.3229C8.67326 19.626 9.04117 19.8301 9.41408 19.9349V15.4558C8.29109 15.4873 7.20135 15.609 6.18213 15.812C6.35634 16.3168 6.5543 16.7936 6.77539 17.2358C7.22659 18.1382 7.74456 18.8404 8.31492 19.3229Z" fill="white"/>
<path d="M13.2246 17.2358C13.4457 16.7936 13.6436 16.3168 13.8179 15.812C12.7987 15.609 11.709 15.4873 10.5859 15.4558V19.9349C10.9589 19.8301 11.3268 19.626 11.6851 19.3228C12.2555 18.8404 12.7734 18.1382 13.2246 17.2358Z" fill="white"/>
<path d="M14.9635 3.91684C15.7895 3.68895 16.5524 3.40328 17.2285 3.06514C17.1806 3.01529 17.1325 2.96559 17.0835 2.9166C15.957 1.79006 14.6093 0.965007 13.1384 0.481689C13.5504 0.96868 13.9315 1.55682 14.2731 2.24013C14.5329 2.7597 14.7636 3.32127 14.9635 3.91684Z" fill="white"/>
<path d="M10.5859 10.5859V14.2833C11.8236 14.3164 13.0277 14.4544 14.1546 14.6864C14.4778 13.4266 14.667 12.0359 14.7072 10.5859H10.5859Z" fill="white"/>
<path d="M6.77539 2.76432C6.5543 3.2065 6.35634 3.68321 6.18213 4.18806C7.20135 4.39113 8.29109 4.51283 9.41408 4.54428V0.0651855C9.04113 0.169928 8.67322 0.374101 8.31492 0.677234C7.74456 1.15973 7.22659 1.86191 6.77539 2.76432Z" fill="white"/>
<path d="M9.41395 9.41392V5.71659C8.1763 5.68342 6.97217 5.54551 5.84531 5.31348C5.52206 6.57324 5.33293 7.96397 5.29272 9.41392H9.41395Z" fill="white"/>
<path d="M5.03645 16.0833C4.21042 16.3111 3.44753 16.5968 2.77148 16.9349C2.81934 16.9848 2.86744 17.0345 2.91647 17.0835C4.04301 18.2101 5.39068 19.0351 6.86154 19.5184C6.44952 19.0314 6.06848 18.4433 5.72683 17.76C5.46702 17.2404 5.23636 16.6788 5.03645 16.0833Z" fill="white"/>
<path d="M15.2935 14.9606C16.2915 15.2372 17.2087 15.5927 18.009 16.0191C19.1957 14.4468 19.8862 12.571 20 10.5859H15.8798C15.8392 12.1261 15.6384 13.6097 15.2935 14.9606Z" fill="white"/>
<path d="M14.9635 16.0833C14.7636 16.6788 14.5329 17.2404 14.2731 17.76C13.9315 18.4433 13.5504 19.0314 13.1384 19.5184C14.6093 19.0351 15.957 18.2101 17.0835 17.0835C17.1325 17.0345 17.1806 16.9848 17.2285 16.935C16.5524 16.5968 15.7895 16.3111 14.9635 16.0833Z" fill="white"/>
<path d="M15.2935 5.03948C15.6384 6.39043 15.8392 7.87399 15.8798 9.41411H20C19.8862 7.42907 19.1957 5.55323 18.009 3.98096C17.2087 4.40735 16.2915 4.76292 15.2935 5.03948Z" fill="white"/>
<path d="M10.5859 5.71659V9.41392H14.7072C14.667 7.96393 14.4778 6.57324 14.1546 5.31348C13.0277 5.54551 11.8236 5.68342 10.5859 5.71659Z" fill="white"/>
<path d="M11.6851 0.677234C11.3268 0.37414 10.9589 0.169968 10.5859 0.0651855V4.54425C11.7089 4.51276 12.7987 4.3911 13.8179 4.18802C13.6437 3.68321 13.4457 3.20646 13.2246 2.76428C12.7734 1.86191 12.2555 1.15973 11.6851 0.677234Z" fill="white"/>
<path d="M5.03645 3.91687C5.23636 3.32131 5.46702 2.75974 5.72683 2.24013C6.06848 1.55682 6.44956 0.96868 6.86154 0.481689C5.39068 0.965007 4.04305 1.79006 2.91647 2.9166C2.86744 2.96563 2.81934 3.01533 2.77148 3.06518C3.44753 3.40332 4.21046 3.68899 5.03645 3.91687Z" fill="white"/>
<path d="M4.70659 14.9606C4.36162 13.6096 4.16088 12.1261 4.12017 10.5859H0C0.113768 12.5709 0.804266 14.4468 1.99105 16.0191C2.79133 15.5927 3.70847 15.2371 4.70659 14.9606Z" fill="white"/>
<path d="M4.70659 5.03944C3.70851 4.76288 2.79133 4.40731 1.99105 3.98096C0.804266 5.55323 0.113768 7.42908 0 9.41407H4.12017C4.16084 7.87395 4.36162 6.39036 4.70659 5.03944Z" fill="white"/>
<path d="M0.295491 7.59795C1.62164 2.23673 7.04227 -1.03137 12.4017 0.295301C17.7626 1.62133 21.0308 7.0413 19.7047 12.4017C18.378 17.762 12.9584 21.0315 7.59777 19.7047C2.23799 18.3785 -1.03195 12.9582 0.295491 7.59795Z" fill="#223C72"/>
<path d="M17.0933 2.95174L13.0731 5.63187V0.486914C12.8536 0.416384 12.6306 0.352311 12.4032 0.295984C10.5168 -0.170933 8.62324 -0.0679629 6.90298 0.494338V5.63236L2.89856 2.96304C1.98153 3.88687 1.23639 4.99888 0.729949 6.25841L1.79045 6.96532H0.476243C0.410234 7.1732 0.349874 7.38414 0.296615 7.5988C-0.173678 9.49858 -0.0661913 11.4056 0.506907 13.1356H1.81675L0.767714 13.8351C1.27642 15.0577 2.02446 16.1724 2.96844 17.1084L6.90314 14.4857V19.5062C7.13102 19.5803 7.36294 19.6471 7.59938 19.7055C9.47619 20.1702 11.3599 20.0706 13.0733 19.5157V14.4855L17.0236 17.1187C17.9516 16.2049 18.7097 15.1019 19.23 13.8495L18.159 13.1356H19.495C19.5739 12.896 19.6445 12.6514 19.7061 12.4026C20.167 10.5393 20.0725 8.66869 19.5281 6.96548H18.1856L19.2668 6.24485C18.7681 5.01696 18.0296 3.89526 17.0933 2.95174Z" fill="#EFEBE7"/>
<path d="M5.36412 6.96574L1.65181 4.49639C1.40488 4.87099 1.1812 5.26463 0.984299 5.67652L2.92212 6.96574H5.36412ZM18.3331 4.47703C18.0838 4.10033 17.8085 3.74058 17.5097 3.39987L13.0721 6.35115V6.96574H14.592L18.3331 4.47703ZM1.67925 15.5431C1.9294 15.919 2.20522 16.2779 2.5046 16.6177L6.90185 13.6932V13.1359H5.29892L1.67925 15.5431ZM19.8455 8.25061H11.7871V0.164866C10.5654 -0.0581822 9.34918 -0.0483371 8.187 0.166641V8.25061H0.157656C-0.0608671 9.47221 -0.0461806 10.6882 0.172827 11.8494H8.187V19.8323C9.40841 20.0588 10.6246 20.0518 11.7871 19.8401V11.8494H19.8252C20.056 10.6291 20.0528 9.4133 19.8455 8.25061ZM14.6778 13.1359L18.3159 15.5554C18.5651 15.1822 18.7905 14.7897 18.9898 14.3793L17.1197 13.1357L14.6778 13.1359Z" fill="#EF3827"/>
<path d="M13.0718 1.52686V1.5275V2.17534C13.1112 2.05252 13.1316 1.93583 13.1318 1.82657C13.132 1.7194 13.1124 1.61901 13.0718 1.52686Z" fill="#303F66"/>
</g>
<defs>
<clipPath id="clip0">
<rect width="20" height="20" fill="white"/>
</clipPath>
</defs>
</svg>
