<svg width="52" height="38" viewBox="0 0 52 38" fill="none" xmlns="http://www.w3.org/2000/svg">
<path d="M51.5395 37.3266C51.4276 37.4384 51.2039 37.5503 50.9802 37.5503C50.8683 37.5503 50.6446 37.5503 50.5327 37.4384L50.4209 37.3266L25.9235 22.8966L1.53808 37.3266C1.42622 37.3266 1.2025 37.4384 0.866917 37.5503C0.531337 37.5503 0.195755 37.4384 0.083895 37.1029C-0.027965 36.7673 -0.027965 36.4317 0.083895 36.208L25.0287 0.972084C25.2524 0.636505 25.588 0.412785 26.0354 0.412785C26.371 0.412785 26.5947 0.636501 26.8184 0.860222L51.6513 35.8724C51.7632 35.9843 51.8751 36.208 51.9869 36.5436C51.8751 36.8791 51.7632 37.2147 51.5395 37.3266ZM23.4626 22.3373L25.1405 21.3306V3.99231L3.88714 33.8589L23.4626 22.3373ZM26.9303 4.10416V21.3306C26.9303 21.3306 26.9303 21.3306 26.9303 21.4425L48.0718 33.8589L26.9303 4.10416Z" fill="url(#paint0_linear)"/>
<path d="M26.0347 2.09005C26.0347 2.09005 26.0347 1.97818 26.0347 2.09005C25.9228 1.97818 25.9228 1.97818 26.0347 2.09005C25.9228 2.09005 25.9228 2.09004 25.811 2.2019C23.3501 5.78142 20.7773 9.24908 18.2045 12.8286C15.6317 16.52 13.0589 20.0995 10.4862 23.7909C8.02525 27.2585 5.45247 30.8381 2.99155 34.3057C2.32039 35.3124 1.64923 36.2073 0.978071 37.1022C0.978071 37.2141 0.978071 37.2141 0.866211 37.3259C0.978071 37.3259 1.08993 37.2141 1.08993 37.2141C4.66945 35.0887 8.13711 33.0753 11.7166 30.9499C15.7436 28.6009 19.8824 26.1399 23.9094 23.7909C24.5805 23.3434 25.2517 23.0079 25.9228 22.5604C26.0347 22.4486 26.0347 22.4486 26.0347 22.3367C26.0347 22.2248 26.0347 22.113 26.0347 22.0011C26.0347 15.6251 26.0347 9.13722 26.0347 2.7612C26.0347 2.42562 26.0347 2.31377 26.0347 2.09005Z" fill="url(#paint1_linear)"/>
<path d="M50.9788 37.3259C50.9788 37.2141 50.9788 37.2141 50.867 37.1022C43.3724 26.5874 35.8777 15.9607 28.3831 5.44584C27.6001 4.32724 26.8171 3.20864 26.0341 2.09004V2.2019C26.0341 2.31376 26.0341 2.31376 26.0341 2.42562C26.0341 9.02535 26.0341 15.6251 26.0341 22.2248C26.0341 22.3367 26.0341 22.4486 26.0341 22.5604C27.712 23.5672 29.3899 24.5739 31.0678 25.5806C37.6675 29.4957 44.2672 33.4108 50.867 37.2141C50.867 37.3259 50.9788 37.3259 50.9788 37.3259Z" fill="url(#paint2_linear)"/>
<defs>
<linearGradient id="paint0_linear" x1="25.9605" y1="85.998" x2="25.9605" y2="-7.31674" gradientUnits="userSpaceOnUse">
<stop stop-color="#FEFFFF"/>
<stop offset="0.2019" stop-color="#FBEEB8"/>
<stop offset="0.5238" stop-color="#F6D240"/>
<stop offset="0.5718" stop-color="#F2BC3C"/>
<stop offset="0.6864" stop-color="#E98C35"/>
<stop offset="0.7741" stop-color="#E46E30"/>
<stop offset="0.8237" stop-color="#E2632E"/>
<stop offset="0.8248" stop-color="#E2632E"/>
<stop offset="0.8916" stop-color="#DA493E"/>
<stop offset="0.952" stop-color="#D53947"/>
<stop offset="1" stop-color="#D3344A"/>
</linearGradient>
<linearGradient id="paint1_linear" x1="-2.91801" y1="57.265" x2="41.1123" y2="-16.2762" gradientUnits="userSpaceOnUse">
<stop stop-color="#FEFFFF"/>
<stop offset="0.2019" stop-color="#FBEEB8"/>
<stop offset="0.5238" stop-color="#F6D240"/>
<stop offset="0.5718" stop-color="#F2BC3C"/>
<stop offset="0.6864" stop-color="#E98C35"/>
<stop offset="0.7741" stop-color="#E46E30"/>
<stop offset="0.8237" stop-color="#E2632E"/>
<stop offset="0.8248" stop-color="#E2632E"/>
<stop offset="0.8916" stop-color="#DA493E"/>
<stop offset="0.952" stop-color="#D53947"/>
<stop offset="1" stop-color="#D3344A"/>
</linearGradient>
<linearGradient id="paint2_linear" x1="41.0211" y1="14.1631" x2="28.4066" y2="42.2478" gradientUnits="userSpaceOnUse">
<stop stop-color="#FEFFFF"/>
<stop offset="0.2019" stop-color="#FBEEB8"/>
<stop offset="0.5238" stop-color="#F6D240"/>
<stop offset="0.5718" stop-color="#F2BC3C"/>
<stop offset="0.6864" stop-color="#E98C35"/>
<stop offset="0.7741" stop-color="#E46E30"/>
<stop offset="0.8237" stop-color="#E2632E"/>
<stop offset="0.8248" stop-color="#E2632E"/>
<stop offset="0.8916" stop-color="#DA493E"/>
<stop offset="0.952" stop-color="#D53947"/>
<stop offset="1" stop-color="#D3344A"/>
</linearGradient>
</defs>
</svg>
