<svg width="30" height="21" viewBox="0 0 30 21" fill="none" xmlns="http://www.w3.org/2000/svg">
<path d="M10.1128 10.4654L0.00654538 16.8296L0.0294451 3.79623L10.1128 10.4654Z" fill="#F41616"/>
<path d="M29.9741 3.84863L29.9512 16.882L19.8674 10.4823L29.9741 3.84863Z" fill="#F41616"/>
<path d="M1.90794 0.00350855L28.1094 0.0495447C29.0433 0.0511856 29.7832 0.748698 29.922 1.64541L14.9886 11.4466L0.0897524 1.59299C0.231693 0.696776 0.974044 0.00186769 1.90794 0.00350855Z" fill="#F41616"/>
<path d="M11.8246 11.5973L14.4698 13.3462C14.6268 13.4494 14.8045 13.5003 14.9842 13.5006C15.1639 13.5009 15.3417 13.4507 15.4991 13.348L18.1504 11.6066L29.8868 19.0591C29.7412 19.9478 29.0026 20.6371 28.0724 20.6354L1.87095 20.5894C0.940799 20.5878 0.204626 19.8959 0.0620807 19.0067L11.8246 11.5973Z" fill="#F41616"/>
</svg>
