<svg width="52" height="41" viewBox="0 0 52 41" fill="none" xmlns="http://www.w3.org/2000/svg">
<path d="M51.5395 0.260159C51.4276 0.138991 51.2039 0.0178223 50.9802 0.0178223C50.8683 0.0178223 50.6446 0.0178222 50.5327 0.138991L50.4209 0.260159L25.9235 15.8909L1.53808 0.260159C1.42622 0.260159 1.2025 0.138991 0.866917 0.0178223C0.531337 0.0178223 0.195755 0.13899 0.083895 0.502496C-0.027965 0.866002 -0.027965 1.22951 0.083895 1.47184L25.0287 39.64C25.2524 40.0035 25.588 40.2458 26.0354 40.2458C26.371 40.2458 26.5947 40.0035 26.8184 39.7611L51.6513 1.83535C51.7632 1.71418 51.8751 1.47184 51.9869 1.10834C51.8751 0.744833 51.7632 0.381328 51.5395 0.260159ZM23.4626 16.4968L25.1405 17.5873V36.3684L3.88714 4.01639L23.4626 16.4968ZM26.9303 36.2472V17.5873C26.9303 17.5873 26.9303 17.5873 26.9303 17.4661L48.0718 4.01639L26.9303 36.2472Z" fill="url(#paint0_linear)"/>
<path d="M26.0347 38.4284C26.0347 38.4284 26.0347 38.5495 26.0347 38.4284C25.9228 38.5495 25.9228 38.5495 26.0347 38.4284C25.9228 38.4284 25.9228 38.4284 25.811 38.3072C23.3501 34.4298 20.7773 30.6736 18.2045 26.7962C15.6317 22.7976 13.0589 18.9202 10.4862 14.9217C8.02525 11.1654 5.45247 7.28803 2.99155 3.53181C2.32039 2.44129 1.64923 1.47194 0.978071 0.502591C0.978071 0.381422 0.978071 0.381423 0.866211 0.260254C0.978071 0.260254 1.08993 0.381422 1.08993 0.381422C4.66945 2.68363 8.1371 4.86466 11.7166 7.16686C15.7436 9.7114 19.8824 12.3771 23.9094 14.9217C24.5805 15.4063 25.2517 15.7698 25.9228 16.2545C26.0347 16.3757 26.0347 16.3757 26.0347 16.4968C26.0347 16.618 26.0347 16.7392 26.0347 16.8604C26.0347 23.767 26.0347 30.7947 26.0347 37.7014C26.0347 38.0649 26.0347 38.186 26.0347 38.4284Z" fill="url(#paint1_linear)"/>
<path d="M50.9787 0.260254C50.9787 0.381423 50.9787 0.381422 50.8669 0.502591C43.3722 11.8924 35.8776 23.4035 28.383 34.7933C27.6 36.005 26.817 37.2167 26.0339 38.4284V38.3072C26.0339 38.186 26.0339 38.186 26.0339 38.0649C26.0339 30.9159 26.0339 23.767 26.0339 16.618C26.0339 16.4969 26.0339 16.3757 26.0339 16.2545C27.7118 15.164 29.3897 14.0735 31.0676 12.983C37.6674 8.74206 44.2671 4.50116 50.8669 0.381422C50.8669 0.260254 50.9787 0.260254 50.9787 0.260254Z" fill="url(#paint2_linear)"/>
<defs>
<linearGradient id="paint0_linear" x1="25.9605" y1="-52.4615" x2="25.9605" y2="48.6186" gradientUnits="userSpaceOnUse">
<stop stop-color="#FEFFFF"/>
<stop offset="0.2019" stop-color="#FBEEB8"/>
<stop offset="0.5238" stop-color="#F6D240"/>
<stop offset="0.5718" stop-color="#F2BC3C"/>
<stop offset="0.6864" stop-color="#E98C35"/>
<stop offset="0.7741" stop-color="#E46E30"/>
<stop offset="0.8237" stop-color="#E2632E"/>
<stop offset="0.8248" stop-color="#E2632E"/>
<stop offset="0.8916" stop-color="#DA493E"/>
<stop offset="0.952" stop-color="#D53947"/>
<stop offset="1" stop-color="#D3344A"/>
</linearGradient>
<linearGradient id="paint1_linear" x1="-2.91801" y1="-21.338" x2="46.4854" y2="54.8384" gradientUnits="userSpaceOnUse">
<stop stop-color="#FEFFFF"/>
<stop offset="0.2019" stop-color="#FBEEB8"/>
<stop offset="0.5238" stop-color="#F6D240"/>
<stop offset="0.5718" stop-color="#F2BC3C"/>
<stop offset="0.6864" stop-color="#E98C35"/>
<stop offset="0.7741" stop-color="#E46E30"/>
<stop offset="0.8237" stop-color="#E2632E"/>
<stop offset="0.8248" stop-color="#E2632E"/>
<stop offset="0.8916" stop-color="#DA493E"/>
<stop offset="0.952" stop-color="#D53947"/>
<stop offset="1" stop-color="#D3344A"/>
</linearGradient>
<linearGradient id="paint2_linear" x1="41.0209" y1="25.3506" x2="26.6382" y2="-4.21085" gradientUnits="userSpaceOnUse">
<stop stop-color="#FEFFFF"/>
<stop offset="0.2019" stop-color="#FBEEB8"/>
<stop offset="0.5238" stop-color="#F6D240"/>
<stop offset="0.5718" stop-color="#F2BC3C"/>
<stop offset="0.6864" stop-color="#E98C35"/>
<stop offset="0.7741" stop-color="#E46E30"/>
<stop offset="0.8237" stop-color="#E2632E"/>
<stop offset="0.8248" stop-color="#E2632E"/>
<stop offset="0.8916" stop-color="#DA493E"/>
<stop offset="0.952" stop-color="#D53947"/>
<stop offset="1" stop-color="#D3344A"/>
</linearGradient>
</defs>
</svg>
